<?xml version="1.0" encoding="UTF-8" standalone="no"?>
<!-- Created with Inkscape (http://www.inkscape.org/) -->

<svg
   width="744.09448819"
   height="1052.3622047"
   id="svg12385"
   sodipodi:version="0.32"
   inkscape:version="1.1.2 (b8e25be833, 2022-02-05)"
   sodipodi:docname="seaplane_base.svg"
   inkscape:output_extension="org.inkscape.output.svg.inkscape"
   version="1.1"
   inkscape:export-filename="D:\projekty\msfs-google-map\static\images\seaplane_base.png"
   inkscape:export-xdpi="8.5716019"
   inkscape:export-ydpi="8.5716019"
   xmlns:inkscape="http://www.inkscape.org/namespaces/inkscape"
   xmlns:sodipodi="http://sodipodi.sourceforge.net/DTD/sodipodi-0.dtd"
   xmlns="http://www.w3.org/2000/svg"
   xmlns:svg="http://www.w3.org/2000/svg"
   xmlns:rdf="http://www.w3.org/1999/02/22-rdf-syntax-ns#"
   xmlns:cc="http://creativecommons.org/ns#"
   xmlns:dc="http://purl.org/dc/elements/1.1/">
  <defs
     id="defs12387">
    <inkscape:perspective
       sodipodi:type="inkscape:persp3d"
       inkscape:vp_x="0 : 526.18109 : 1"
       inkscape:vp_y="0 : 1000 : 0"
       inkscape:vp_z="744.09448 : 526.18109 : 1"
       inkscape:persp3d-origin="372.04724 : 350.78739 : 1"
       id="perspective12393" />
  </defs>
  <sodipodi:namedview
     id="base"
     pagecolor="#ffffff"
     bordercolor="#666666"
     borderopacity="1.0"
     gridtolerance="10000"
     guidetolerance="10"
     objecttolerance="10"
     inkscape:pageopacity="0.0"
     inkscape:pageshadow="2"
     inkscape:zoom="0.7"
     inkscape:cx="282.14286"
     inkscape:cy="518.57143"
     inkscape:document-units="px"
     inkscape:current-layer="layer1"
     showgrid="false"
     inkscape:window-width="3440"
     inkscape:window-height="1369"
     inkscape:window-x="-8"
     inkscape:window-y="-8"
     inkscape:pagecheckerboard="0"
     inkscape:window-maximized="1" />
  <metadata
     id="metadata12390">
    <rdf:RDF>
      <cc:Work
         rdf:about="">
        <dc:format>image/svg+xml</dc:format>
        <dc:type
           rdf:resource="http://purl.org/dc/dcmitype/StillImage" />
        <dc:title>Other map symbols</dc:title>
        <dc:creator>
          <cc:Agent>
            <dc:title>Mohamed Ibrahim</dc:title>
          </cc:Agent>
        </dc:creator>
        <dc:rights>
          <cc:Agent>
            <dc:title>Public Domain</dc:title>
          </cc:Agent>
        </dc:rights>
        <dc:publisher>
          <cc:Agent>
            <dc:title>clker.com</dc:title>
          </cc:Agent>
        </dc:publisher>
        <dc:subject>
          <rdf:Bag>
            <rdf:li>other map symbols</rdf:li>
          </rdf:Bag>
        </dc:subject>
        <cc:license
           rdf:resource="http://creativecommons.org/publicdomain/zero/1.0/" />
      </cc:Work>
      <cc:License
         rdf:about="http://creativecommons.org/licenses/publicdomain/">
        <cc:permits
           rdf:resource="http://creativecommons.org/ns#Reproduction" />
        <cc:permits
           rdf:resource="http://creativecommons.org/ns#Distribution" />
        <cc:permits
           rdf:resource="http://creativecommons.org/ns#DerivativeWorks" />
      </cc:License>
    </rdf:RDF>
  </metadata>
  <g
     inkscape:label="Layer 1"
     inkscape:groupmode="layer"
     id="layer1">
    <path
       d="M 631.95521,597.66646 C 620.60978,597.66646 609.66011,595.09394 599.96372,590.80643 C 590.06945,586.1891 578.85594,583.48466 567.11473,583.48466 C 555.43949,583.48466 544.22598,586.1891 534.26574,590.80643 C 524.63531,595.09394 513.68565,597.66646 502.34022,597.66646 C 491.1267,597.66646 480.17704,595.09394 470.48065,590.80643 C 460.45445,586.1891 449.24094,583.48466 437.63166,583.48466 C 425.95642,583.48466 414.74291,586.1891 404.78267,590.80643 C 395.02032,595.09394 384.20258,597.66646 372.85714,597.66646 C 361.51171,597.66646 350.56204,595.09394 340.93162,590.80643 C 330.97138,586.1891 319.75787,583.48466 308.08263,583.48466 C 296.34142,583.48466 285.12791,586.1891 275.16767,590.80643 C 265.53725,595.09394 254.58758,597.66646 243.24215,597.66646 C 231.89671,597.66646 221.07897,595.09394 211.44854,590.80643 C 201.35638,586.1891 190.14287,583.48466 178.59955,583.48466 C 166.85835,583.48466 155.64484,586.1891 145.75056,590.80643 C 135.92225,595.09394 125.10451,597.66646 113.75907,597.66646 L 113.75907,549.84413 C 125.10451,549.84413 135.92225,547.27162 145.75056,542.9841 C 155.64484,538.36677 166.85835,535.66234 178.59955,535.66234 C 190.14287,535.66234 201.35638,538.36677 211.44854,542.9841 C 221.07897,547.27162 231.89671,549.84413 243.24215,549.84413 C 254.58758,549.84413 265.53725,547.27162 275.16767,542.9841 C 285.12791,538.36677 296.34142,535.66234 308.08263,535.66234 C 319.75787,535.66234 330.97138,538.36677 340.93162,542.9841 C 350.56204,547.27162 361.51171,549.84413 372.85714,549.84413 C 384.20258,549.84413 395.02032,547.27162 404.78267,542.9841 C 414.74291,538.36677 425.95642,535.66234 437.63166,535.66234 C 449.24094,535.66234 460.45445,538.36677 470.48065,542.9841 C 480.17704,547.27162 491.1267,549.84413 502.34022,549.84413 C 513.68565,549.84413 524.63531,547.27162 534.26574,542.9841 C 544.22598,538.36677 555.43949,535.66234 567.11473,535.66234 C 578.85594,535.66234 590.06945,538.36677 599.96372,542.9841 C 609.66011,547.27162 620.60978,549.84413 631.95521,549.84413 L 631.95521,597.66646 z"
       style="fill:#231f20;fill-opacity:1;fill-rule:nonzero;stroke:none"
       id="path5516" />
    <path
       d="M 515.46662,305.98324 C 513.9495,308.55575 505.3085,323.3312 505.3085,323.3312 C 505.3085,323.3312 503.46157,327.09103 497.59096,327.09103 L 468.04006,327.09103 L 451.15384,276.96004 C 452.47307,276.69619 453.85827,276.43234 454.78174,276.30042 C 465.33563,274.38753 468.96353,274.38753 476.81299,278.4112 C 476.81299,278.4112 510.45352,295.75916 512.76218,297.0784 C 515.59854,298.46359 517.37951,302.61919 515.46662,305.98324 M 434.66338,280.19217 L 450.56018,327.09103 L 333.0162,327.09103 C 330.44369,327.09103 327.73925,325.57391 327.73925,321.55023 L 327.73925,315.2179 C 327.73925,311.78788 329.19041,309.67711 332.29062,308.15998 C 335.85256,306.51094 357.15823,298.00186 370.02078,294.63781 C 393.23935,288.83317 417.57926,283.55622 434.66338,280.19217 M 330.44369,463.36817 L 349.50666,411.9839 L 481.56224,411.9839 L 500.62521,463.17028 L 330.44369,463.36817 z M 648.97336,462.90644 L 515.86239,463.03836 L 496.6675,411.58813 C 511.97064,409.14754 540.86192,404.53022 557.48431,399.78097 C 564.67415,397.93403 571.99591,390.48035 574.10669,386.19283 L 613.74975,325.77179 L 613.74975,401.43001 C 613.74975,409.93909 626.41442,409.93909 626.41442,401.43001 L 626.41442,323.3312 L 631.82329,323.3312 C 646.99451,323.3312 646.99451,300.57437 631.82329,300.57437 L 626.41442,300.57437 L 626.41442,225.04808 C 626.41442,216.539 613.74975,216.539 613.74975,225.04808 L 613.74975,300.57437 L 610.05588,300.57437 C 596.53371,299.25514 533.01247,292.46107 520.74357,286.12873 C 508.4087,279.66447 495.48019,272.34271 483.40917,266.1423 C 472.32758,260.6015 465.86332,260.99727 453.85827,263.04209 C 447.0642,264.36133 407.09133,271.81501 368.37174,281.64333 C 320.54941,293.71434 261.51357,321.55023 261.51357,321.55023 L 194.03462,321.81408 C 178.59955,317.32868 172.53106,288.4374 165.80296,275.70676 L 148.78481,241.40661 C 147.53153,238.57025 144.43133,237.71275 141.46304,237.58082 L 98.45593,235.00831 C 91.99167,234.61254 94.432258,240.02141 95.355724,243.12162 L 124.84066,358.75271 C 127.94087,371.68123 145.88249,384.01609 158.4812,385.33532 L 332.15869,411.9839 L 334.33543,411.9839 L 315.27247,463.36817 L 178.73148,463.50009 C 175.36742,463.50009 172.66299,465.34702 172.66299,468.57915 L 172.66299,477.28612 C 172.66299,480.91402 174.83973,483.3546 178.73148,484.54192 C 189.94499,487.90597 223.65148,497.14063 263.8882,506.96894 C 265.2734,506.44124 266.72456,506.1774 268.10976,505.51778 C 280.84039,499.58121 294.2966,496.61293 308.08263,496.61293 C 321.86865,496.61293 335.39082,499.58121 347.85761,505.38586 C 355.70707,509.01376 364.34807,510.79473 372.85714,510.79473 C 381.36622,510.79473 389.74337,509.01376 397.59283,505.51778 C 410.05962,499.71314 423.97756,496.61293 437.63166,496.61293 C 451.15384,496.61293 465.07178,499.71314 477.34068,505.38586 C 485.32206,509.01376 493.96306,510.79473 502.34022,510.79473 C 510.84929,510.79473 519.49029,509.01376 527.0759,505.51778 C 539.67461,499.71314 553.46063,496.61293 567.11473,496.61293 C 580.04325,496.61293 593.03773,499.44929 604.91086,504.59431 C 638.08966,493.64465 649.83087,484.67384 649.83087,484.67384 C 652.40338,482.56306 654.11839,480.38632 654.11839,477.02227 L 654.11839,468.05146 C 654.11839,464.68741 652.27146,462.90644 648.97336,462.90644"
       style="fill:#231f20;fill-opacity:1;fill-rule:nonzero;stroke:none"
       id="path5518" />
  </g>
</svg>
